# xmcd
#
# Track frame offsets:
#       150
#       27985
#       53367
#       86852
#       111477
#       134385
#       173055
#       199017
#       215012
#       238645
#       252345
#
# Disc length: 3740 seconds
#
# Revision: 2
# Processed by: cddbd v1.5.2PL0 Copyright (c) Steve Scherf et al.
# Submitted via: FreeDbEdit v0.1
#
DISCID=9b0e9a0b
DTITLE=Joe Pass With Red Mitchell - Finally - Live in Stockholm
DYEAR=1992
DGENRE=Jazz
TTITLE0=The Shadow of Your Smile
TTITLE1=Have You Met Ms. Jones?
TTITLE2=I Thought About You
TTITLE3=Doxy
TTITLE4=All of the Things You Are
TTITLE5=These Foolish Things
TTITLE6=Blue Moon
TTITLE7=For Django
TTITLE8=Finally
TTITLE9=Pennies From Heaven
TTITLE10=Softly as a Morning Sunrise
EXTD=Joe Pass g - Red Mitchell b - voc (9) - YEAR: 1992
EXTT0=
EXTT1=
EXTT2=
EXTT3=
EXTT4=
EXTT5=
EXTT6=
EXTT7=
EXTT8=
EXTT9=
EXTT10=
PLAYORDER=
